<mxfile host="app.diagrams.net" modified="2023-07-19T19:16:24.247Z" agent="Mozilla/5.0 (Windows NT 10.0; Win64; x64) AppleWebKit/537.36 (KHTML, like Gecko) Chrome/114.0.0.0 Safari/537.36 Edg/114.0.1823.82" version="21.6.2" etag="lX3zDlIKedC_u6LSoc_7" type="github">
  <diagram name="Page-1" id="YJe52VvvxCcK4HBXDxsR">
    <mxGraphModel>
      <root>
        <mxCell id="0" />
        <mxCell id="1" parent="0" />
      </root>
    </mxGraphModel>
  </diagram>
</mxfile>
